<svg width="42" height="40" viewBox="0 0 42 40" fill="none" xmlns="http://www.w3.org/2000/svg">
<path fill-rule="evenodd" clip-rule="evenodd" d="M39.626 16.8745H16.488L38.4072 11.0875C38.8263 10.9771 39.1839 10.7038 39.4006 10.3285C39.6172 9.95316 39.675 9.50684 39.561 9.08873L37.9035 2.99498C37.4287 1.28893 35.6708 0.281413 33.9588 0.7342L3.02488 8.89983C2.19284 9.11581 1.48273 9.65755 1.05457 10.4029C0.623957 11.1393 0.510353 12.0188 0.739727 12.8405L2.25098 18.4101C2.25098 18.4386 2.25098 18.469 2.25098 18.4995V36.3745C2.25098 38.1694 3.70605 39.6245 5.50098 39.6245H38.001C39.7959 39.6245 41.251 38.1694 41.251 36.3745V18.4995C41.251 17.602 40.5234 16.8745 39.626 16.8745ZM34.7835 3.87451L36.0022 8.35748L31.4075 9.57623L25.6957 6.27748L34.7835 3.87451ZM21.2371 7.44951L26.9489 10.7483L19.4455 12.7287L13.7336 9.43404L21.2371 7.44951ZM5.10895 16.513L3.8902 12.028L9.27301 10.6061L14.9849 13.9089L5.10895 16.513ZM38.001 36.3745H5.50098V20.1245H38.001V36.3745Z" fill="#0F1417"/>
</svg>
