<svg width="72" height="39" viewBox="0 0 72 39" fill="none" xmlns="http://www.w3.org/2000/svg">
<rect width="72" height="39" rx="19.5" fill="black"/>
<path d="M17 7.91696C17.1464 8.09488 17.2361 8.31262 17.2575 8.54204C17.2789 8.77147 17.231 9.00204 17.12 9.20396C16.2528 10.7962 15.7999 12.5809 15.803 14.394C15.803 20.4255 20.72 25.3095 26.78 25.3095C27.5705 25.3095 28.34 25.227 29.0795 25.0695C29.3062 25.0204 29.5423 25.0391 29.7584 25.1234C29.9745 25.2077 30.1609 25.3538 30.2945 25.5435C30.4355 25.7406 30.5074 25.9789 30.499 26.2211C30.4905 26.4634 30.4023 26.696 30.248 26.883C29.0715 28.3281 27.5874 29.4925 25.9038 30.2912C24.2201 31.09 22.3795 31.5029 20.516 31.5C13.601 31.5 8 25.929 8 19.065C8 13.899 11.171 9.46796 15.686 7.58996C15.9109 7.49491 16.1606 7.4754 16.3975 7.53436C16.6345 7.59333 16.8459 7.72758 17 7.91696ZM15.287 9.46646C13.5509 10.3977 12.0996 11.7819 11.0872 13.472C10.0748 15.1621 9.5393 17.0949 9.5375 19.065C9.5375 25.095 14.456 29.979 20.516 29.979C21.9672 29.9815 23.4044 29.6961 24.7446 29.1395C26.0847 28.5828 27.3012 27.7659 28.3235 26.736C27.818 26.799 27.3035 26.8305 26.78 26.8305C19.865 26.8305 14.2655 21.2595 14.2655 14.3955C14.2655 12.645 14.6285 10.9785 15.287 9.46646Z" fill="white"/>
<path d="M24.191 12.2222C24.2125 12.1572 24.2539 12.1007 24.3094 12.0606C24.3648 12.0206 24.4315 11.999 24.5 11.999C24.5684 11.999 24.6351 12.0206 24.6905 12.0606C24.746 12.1007 24.7875 12.1572 24.809 12.2222L25.3895 13.9652C25.649 14.7422 26.258 15.3512 27.035 15.6107L28.778 16.1912C28.8429 16.2127 28.8994 16.2541 28.9395 16.3096C28.9796 16.3651 29.0011 16.4318 29.0011 16.5002C29.0011 16.5686 28.9796 16.6353 28.9395 16.6908C28.8994 16.7463 28.8429 16.7877 28.778 16.8092L27.035 17.3897C26.6517 17.5174 26.3035 17.7325 26.0179 18.0182C25.7323 18.3038 25.5171 18.652 25.3895 19.0352L24.809 20.7782C24.7875 20.8432 24.746 20.8997 24.6905 20.9397C24.6351 20.9798 24.5684 21.0014 24.5 21.0014C24.4315 21.0014 24.3648 20.9798 24.3094 20.9397C24.2539 20.8997 24.2125 20.8432 24.191 20.7782L23.6105 19.0352C23.4828 18.652 23.2676 18.3038 22.982 18.0182C22.6964 17.7325 22.3482 17.5174 21.965 17.3897L20.222 16.8092C20.157 16.7877 20.1005 16.7463 20.0604 16.6908C20.0203 16.6353 19.9988 16.5686 19.9988 16.5002C19.9988 16.4318 20.0203 16.3651 20.0604 16.3096C20.1005 16.2541 20.157 16.2127 20.222 16.1912L21.965 15.6107C22.3482 15.483 22.6964 15.2678 22.982 14.9822C23.2676 14.6966 23.4828 14.3484 23.6105 13.9652L24.191 12.2222ZM28.7945 7.6487C28.8093 7.60598 28.837 7.56895 28.8738 7.54274C28.9107 7.51653 28.9548 7.50244 29 7.50244C29.0452 7.50244 29.0892 7.51653 29.1261 7.54274C29.1629 7.56895 29.1907 7.60598 29.2055 7.6487L29.5925 8.8097C29.765 9.3287 30.1715 9.7352 30.6905 9.9077L31.8515 10.2947C31.8942 10.3095 31.9312 10.3373 31.9574 10.3741C31.9836 10.4109 31.9977 10.455 31.9977 10.5002C31.9977 10.5454 31.9836 10.5895 31.9574 10.6263C31.9312 10.6631 31.8942 10.6909 31.8515 10.7057L30.6905 11.0927C30.4347 11.1778 30.2023 11.3213 30.0117 11.5119C29.8211 11.7025 29.6775 11.9349 29.5925 12.1907L29.2055 13.3517C29.1907 13.3944 29.1629 13.4314 29.1261 13.4577C29.0892 13.4839 29.0452 13.4979 29 13.4979C28.9548 13.4979 28.9107 13.4839 28.8738 13.4577C28.837 13.4314 28.8093 13.3944 28.7945 13.3517L28.4075 12.1907C28.3224 11.9349 28.1788 11.7025 27.9882 11.5119C27.7976 11.3213 27.5652 11.1778 27.3095 11.0927L26.1485 10.7057C26.1057 10.6909 26.0687 10.6631 26.0425 10.6263C26.0163 10.5895 26.0022 10.5454 26.0022 10.5002C26.0022 10.455 26.0163 10.4109 26.0425 10.3741C26.0687 10.3373 26.1057 10.3095 26.1485 10.2947L27.3095 9.9077C27.8285 9.7352 28.235 9.3287 28.4075 8.8097L28.7945 7.6502V7.6487Z" fill="white"/>
<path fill-rule="evenodd" clip-rule="evenodd" d="M52 9.5C52.5523 9.5 53 9.94772 53 10.5V11.5C53 12.0523 52.5523 12.5 52 12.5C51.4477 12.5 51 12.0523 51 11.5V10.5C51 9.94772 51.4477 9.5 52 9.5ZM44.9289 12.4289C45.3194 12.0384 45.9526 12.0384 46.3431 12.4289L47.0501 13.1359C47.4406 13.5264 47.4406 14.1596 47.0501 14.5501C46.6596 14.9406 46.0264 14.9406 45.6359 14.5501L44.9289 13.8431C44.5384 13.4526 44.5384 12.8194 44.9289 12.4289ZM59.0711 12.4289C59.4616 12.8194 59.4616 13.4526 59.0711 13.8431L58.3641 14.5501C57.9736 14.9406 57.3404 14.9406 56.9499 14.5501C56.5594 14.1596 56.5594 13.5264 56.9499 13.1359L57.6569 12.4289C58.0474 12.0384 58.6806 12.0384 59.0711 12.4289ZM52 16.5C51.2044 16.5 50.4413 16.8161 49.8787 17.3787C49.3161 17.9413 49 18.7044 49 19.5C49 20.2956 49.3161 21.0587 49.8787 21.6213C50.4413 22.1839 51.2044 22.5 52 22.5C52.7956 22.5 53.5587 22.1839 54.1213 21.6213C54.6839 21.0587 55 20.2956 55 19.5C55 18.7044 54.6839 17.9413 54.1213 17.3787C53.5587 16.8161 52.7956 16.5 52 16.5ZM48.4645 15.9645C49.4021 15.0268 50.6739 14.5 52 14.5C53.3261 14.5 54.5979 15.0268 55.5355 15.9645C56.4732 16.9021 57 18.1739 57 19.5C57 20.8261 56.4732 22.0979 55.5355 23.0355C54.5979 23.9732 53.3261 24.5 52 24.5C50.6739 24.5 49.4021 23.9732 48.4645 23.0355C47.5268 22.0979 47 20.8261 47 19.5C47 18.1739 47.5268 16.9021 48.4645 15.9645ZM42 19.5C42 18.9477 42.4477 18.5 43 18.5H44C44.5523 18.5 45 18.9477 45 19.5C45 20.0523 44.5523 20.5 44 20.5H43C42.4477 20.5 42 20.0523 42 19.5ZM59 19.5C59 18.9477 59.4477 18.5 60 18.5H61C61.5523 18.5 62 18.9477 62 19.5C62 20.0523 61.5523 20.5 61 20.5H60C59.4477 20.5 59 20.0523 59 19.5ZM47.0501 24.4499C47.4406 24.8404 47.4406 25.4736 47.0501 25.8641L46.3431 26.5711C45.9526 26.9616 45.3194 26.9616 44.9289 26.5711C44.5384 26.1806 44.5384 25.5474 44.9289 25.1569L45.6359 24.4499C46.0264 24.0594 46.6596 24.0594 47.0501 24.4499ZM56.9499 24.4499C57.3404 24.0594 57.9736 24.0594 58.3641 24.4499L59.0711 25.1569C59.4616 25.5474 59.4616 26.1806 59.0711 26.5711C58.6806 26.9616 58.0474 26.9616 57.6569 26.5711L56.9499 25.8641C56.5594 25.4736 56.5594 24.8404 56.9499 24.4499ZM52 26.5C52.5523 26.5 53 26.9477 53 27.5V28.5C53 29.0523 52.5523 29.5 52 29.5C51.4477 29.5 51 29.0523 51 28.5V27.5C51 26.9477 51.4477 26.5 52 26.5Z" fill="white"/>
</svg>
