<svg width="72" height="50" viewBox="0 0 72 50" fill="none" xmlns="http://www.w3.org/2000/svg">
<rect y="7" width="72" height="40" rx="20" fill="#E8EDF2"/>
<path d="M20 37C14.477 37 10 32.523 10 27C10 21.477 14.477 17 20 17C25.523 17 30 21.477 30 27C30 32.523 25.523 37 20 37ZM17.71 34.667C16.7234 32.5743 16.1519 30.3102 16.027 28H12.062C12.2566 29.5389 12.8939 30.9882 13.8966 32.1717C14.8992 33.3552 16.224 34.2221 17.71 34.667ZM18.03 28C18.181 30.439 18.878 32.73 20 34.752C21.1523 32.6766 21.8254 30.3695 21.97 28H18.03ZM27.938 28H23.973C23.8481 30.3102 23.2766 32.5743 22.29 34.667C23.776 34.2221 25.1008 33.3552 26.1034 32.1717C27.1061 30.9882 27.7434 29.5389 27.938 28ZM12.062 26H16.027C16.1519 23.6898 16.7234 21.4257 17.71 19.333C16.224 19.7779 14.8992 20.6448 13.8966 21.8283C12.8939 23.0118 12.2566 24.4611 12.062 26ZM18.031 26H21.969C21.8248 23.6306 21.152 21.3235 20 19.248C18.8477 21.3234 18.1746 23.6305 18.03 26H18.031ZM22.29 19.333C23.2766 21.4257 23.8481 23.6898 23.973 26H27.938C27.7434 24.4611 27.1061 23.0118 26.1034 21.8283C25.1008 20.6448 23.776 19.7779 22.29 19.333Z" fill="black"/>
<path d="M52.375 19.8H43.125V24.6H50.375V26.9H43.125V34H40.45V17.5H52.375V19.8ZM54.5281 34V21.5H56.8031L57.0531 23.75C57.3865 22.9333 57.8781 22.3167 58.5281 21.9C59.1948 21.4667 60.0115 21.25 60.9781 21.25C61.2281 21.25 61.4781 21.275 61.7281 21.325C61.9781 21.3583 62.1865 21.4167 62.3531 21.5L61.9781 23.85C61.7948 23.7833 61.5865 23.7333 61.3531 23.7C61.1365 23.65 60.8365 23.625 60.4531 23.625C59.9365 23.625 59.4281 23.7667 58.9281 24.05C58.4281 24.3167 58.0115 24.725 57.6781 25.275C57.3615 25.825 57.2031 26.525 57.2031 27.375V34H54.5281Z" fill="black"/>
</svg>
