<svg width="37" height="39" viewBox="0 0 37 39" fill="none" xmlns="http://www.w3.org/2000/svg">
<path d="M18.5 3.86726C22.3249 3.86726 25.4375 6.46993 25.4375 9.66816H30.0625C30.0625 4.33714 24.8756 0 18.5 0C12.1244 0 6.9375 4.33714 6.9375 9.66816V13.5354H4.625C2.07431 13.5354 0 15.2699 0 17.4027V34.8054C0 36.9382 2.07431 38.6726 4.625 38.6726H32.375C34.9257 38.6726 37 36.9382 37 34.8054V17.4027C37 15.2699 34.9257 13.5354 32.375 13.5354H11.5625V9.66816C11.5625 6.46993 14.6751 3.86726 18.5 3.86726ZM32.3796 34.8054H20.8125V30.4006C22.1884 29.7296 23.125 28.4959 23.125 27.0709C23.125 24.9381 21.0507 23.2036 18.5 23.2036C15.9493 23.2036 13.875 24.9381 13.875 27.0709C13.875 28.494 14.8116 29.7296 16.1875 30.4006V34.8054H4.625V17.4027H32.375L32.3796 34.8054Z" fill="black"/>
</svg>
