<svg width="43" height="39" viewBox="0 0 43 39" fill="none" xmlns="http://www.w3.org/2000/svg">
<path fill-rule="evenodd" clip-rule="evenodd" d="M21.751 0.749512C10.153 0.749512 0.750977 9.2561 0.750977 19.7495C0.750977 30.2429 10.153 38.7495 21.751 38.7495C33.349 38.7495 42.751 30.2429 42.751 19.7495C42.7387 9.26069 33.3439 0.760588 21.751 0.749512ZM39.5202 19.7495C39.522 21.8121 39.0832 23.8555 38.2279 25.7674L29.2019 20.7452C28.8182 20.5309 28.3889 20.3921 27.9419 20.3378L23.3341 19.7751C22.0359 19.6219 20.7627 20.1878 20.1033 21.2111H18.3425L17.5752 19.7751C17.1453 18.9648 16.3253 18.38 15.3541 18.1911L13.7387 17.8751L15.3177 15.3649H18.6918C19.2378 15.3639 19.7747 15.2382 20.2527 14.9995L22.7263 13.7645C22.9436 13.6549 23.1468 13.5238 23.332 13.3735L28.7658 8.92682C29.888 8.01689 30.1616 6.52404 29.4241 5.33509L29.3514 5.21634C35.5573 7.87875 39.5153 13.5353 39.5202 19.7495ZM24.8424 3.9174L26.5971 6.76009L21.1634 11.2068L18.6918 12.4418H15.3177C14.1618 12.4403 13.093 12.9976 12.515 13.9034L10.7522 16.6858L8.70271 11.7458L10.9117 7.01951C14.8655 4.25553 19.924 3.12791 24.8444 3.91374L24.8424 3.9174ZM3.98175 19.7495C3.97905 17.3599 4.5683 15.0002 5.70617 12.8437L7.99598 18.3738C8.38374 19.3043 9.26767 19.9925 10.3423 20.2008L14.6695 21.043L15.4389 22.4899C15.9835 23.4938 17.1105 24.1311 18.3466 24.1341H18.6454L17.1855 27.0992C16.6597 28.1664 16.8868 29.4143 17.763 30.2726L17.7913 30.2982L21.751 33.9886L21.3592 35.8155C11.7087 35.6123 3.99776 28.4833 3.98175 19.7495ZM24.695 35.6036L24.9232 34.5421C25.1134 33.6277 24.8138 32.6858 24.1155 32.0027C24.1056 31.9946 24.0961 31.9861 24.0872 31.9771L20.1356 28.2885L22.9019 22.6726L27.5098 23.2353L36.7417 28.3726C34.037 32.2157 29.6601 34.8429 24.695 35.6036Z" fill="#0F1417"/>
</svg>
