<svg width="73" height="41" viewBox="0 0 73 41" fill="none" xmlns="http://www.w3.org/2000/svg">
<rect x="0.893555" y="0.643066" width="72" height="40" rx="20" fill="#E8EDF2"/>
<path d="M20.8936 30.6431C15.3706 30.6431 10.8936 26.1661 10.8936 20.6431C10.8936 15.1201 15.3706 10.6431 20.8936 10.6431C26.4166 10.6431 30.8936 15.1201 30.8936 20.6431C30.8936 26.1661 26.4166 30.6431 20.8936 30.6431ZM18.6036 28.3101C17.617 26.2174 17.0454 23.9533 16.9206 21.6431H12.9556C13.1501 23.182 13.7875 24.6312 14.7901 25.8148C15.7928 26.9983 17.1176 27.8652 18.6036 28.3101ZM18.9236 21.6431C19.0746 24.0821 19.7716 26.3731 20.8936 28.3951C22.0459 26.3196 22.719 24.0125 22.8636 21.6431H18.9236ZM28.8316 21.6431H24.8666C24.7417 23.9533 24.1701 26.2174 23.1836 28.3101C24.6695 27.8652 25.9943 26.9983 26.997 25.8148C27.9996 24.6312 28.637 23.182 28.8316 21.6431ZM12.9556 19.6431H16.9206C17.0454 17.3329 17.617 15.0688 18.6036 12.9761C17.1176 13.4209 15.7928 14.2878 14.7901 15.4714C13.7875 16.6549 13.1501 18.1042 12.9556 19.6431ZM18.9246 19.6431H22.8626C22.7183 17.2737 22.0455 14.9666 20.8936 12.8911C19.7412 14.9665 19.0681 17.2736 18.9236 19.6431H18.9246ZM23.1836 12.9761C24.1701 15.0688 24.7417 17.3329 24.8666 19.6431H28.8316C28.637 18.1042 27.9996 16.6549 26.997 15.4714C25.9943 14.2878 24.6695 13.4209 23.1836 12.9761Z" fill="black"/>
<path d="M52.8936 18.6431H54.8936V19.4001C55.5712 18.9473 56.3591 18.687 57.1731 18.6471C57.9872 18.6072 58.7968 18.7891 59.5155 19.1734C60.2342 19.5577 60.835 20.13 61.2539 20.8291C61.6727 21.5283 61.8938 22.3281 61.8936 23.1431V28.6431H59.8936V23.1431C59.8936 21.7131 58.7186 20.6431 57.3936 20.6431C56.0686 20.6431 54.8936 21.7131 54.8936 23.1431V28.6431H52.8936V18.6431ZM50.8936 12.6431V14.6431H42.8936V19.6431H50.8936V21.6431H42.8936V26.6431H50.8936V28.6431H40.8936V12.6431H50.8936Z" fill="black"/>
</svg>
