<svg width="73" height="40" viewBox="0 0 73 40" fill="none" xmlns="http://www.w3.org/2000/svg">
<rect x="0.894531" y="0.643066" width="72" height="39" rx="19.5" fill="#E8EDF2"/>
<path d="M17.8945 8.56003C18.041 8.73794 18.1307 8.95568 18.152 9.18511C18.1734 9.41454 18.1255 9.64511 18.0145 9.84703C17.1473 11.4392 16.6944 13.224 16.6975 15.037C16.6975 21.0685 21.6145 25.9525 27.6745 25.9525C28.465 25.9525 29.2345 25.87 29.974 25.7125C30.2007 25.6634 30.4368 25.6822 30.6529 25.7665C30.869 25.8508 31.0555 25.9969 31.189 26.1865C31.33 26.3837 31.4019 26.6219 31.3935 26.8642C31.3851 27.1064 31.2969 27.3391 31.1425 27.526C29.9661 28.9712 28.4819 30.1356 26.7983 30.9343C25.1147 31.733 23.274 32.146 21.4105 32.143C14.4955 32.143 8.89453 26.572 8.89453 19.708C8.89453 14.542 12.0655 10.111 16.5805 8.23303C16.8054 8.13797 17.0551 8.11846 17.2921 8.17743C17.529 8.23639 17.7404 8.37065 17.8945 8.56003ZM16.1815 10.1095C14.4454 11.0408 12.9941 12.425 11.9817 14.1151C10.9694 15.8051 10.4338 17.7379 10.432 19.708C10.432 25.738 15.3505 30.622 21.4105 30.622C22.8617 30.6245 24.299 30.3392 25.6391 29.7825C26.9793 29.2259 28.1957 28.409 29.218 27.379C28.7125 27.442 28.198 27.4735 27.6745 27.4735C20.7595 27.4735 15.16 21.9025 15.16 15.0385C15.16 13.288 15.523 11.6215 16.1815 10.1095Z" fill="black"/>
<path d="M25.0848 12.865C25.1063 12.8001 25.1477 12.7435 25.2032 12.7035C25.2586 12.6634 25.3253 12.6418 25.3938 12.6418C25.4622 12.6418 25.5289 12.6634 25.5843 12.7035C25.6398 12.7435 25.6812 12.8001 25.7028 12.865L26.2833 14.608C26.5428 15.385 27.1518 15.994 27.9288 16.2535L29.6718 16.834C29.7367 16.8555 29.7932 16.897 29.8333 16.9524C29.8734 17.0079 29.8949 17.0746 29.8949 17.143C29.8949 17.2114 29.8734 17.2781 29.8333 17.3336C29.7932 17.3891 29.7367 17.4305 29.6718 17.452L27.9288 18.0325C27.5455 18.1602 27.1973 18.3754 26.9117 18.661C26.6261 18.9466 26.4109 19.2948 26.2833 19.678L25.7028 21.421C25.6812 21.486 25.6398 21.5425 25.5843 21.5826C25.5289 21.6226 25.4622 21.6442 25.3938 21.6442C25.3253 21.6442 25.2586 21.6226 25.2032 21.5826C25.1477 21.5425 25.1063 21.486 25.0848 21.421L24.5043 19.678C24.3766 19.2948 24.1614 18.9466 23.8758 18.661C23.5902 18.3754 23.242 18.1602 22.8588 18.0325L21.1158 17.452C21.0508 17.4305 20.9943 17.3891 20.9542 17.3336C20.9141 17.2781 20.8926 17.2114 20.8926 17.143C20.8926 17.0746 20.9141 17.0079 20.9542 16.9524C20.9943 16.897 21.0508 16.8555 21.1158 16.834L22.8588 16.2535C23.242 16.1258 23.5902 15.9107 23.8758 15.6251C24.1614 15.3394 24.3766 14.9912 24.5043 14.608L25.0848 12.865ZM29.6883 8.29152C29.7031 8.24881 29.7308 8.21177 29.7676 8.18556C29.8045 8.15935 29.8486 8.14526 29.8938 8.14526C29.939 8.14526 29.983 8.15935 30.0199 8.18556C30.0567 8.21177 30.0845 8.24881 30.0993 8.29152L30.4863 9.45252C30.6588 9.97152 31.0653 10.378 31.5843 10.5505L32.7453 10.9375C32.788 10.9523 32.825 10.9801 32.8512 11.0169C32.8774 11.0537 32.8915 11.0978 32.8915 11.143C32.8915 11.1882 32.8774 11.2323 32.8512 11.2691C32.825 11.306 32.788 11.3337 32.7453 11.3485L31.5843 11.7355C31.3285 11.8206 31.0961 11.9641 30.9055 12.1547C30.7149 12.3453 30.5713 12.5778 30.4863 12.8335L30.0993 13.9945C30.0845 14.0372 30.0567 14.0743 30.0199 14.1005C29.983 14.1267 29.939 14.1408 29.8938 14.1408C29.8486 14.1408 29.8045 14.1267 29.7676 14.1005C29.7308 14.0743 29.7031 14.0372 29.6883 13.9945L29.3013 12.8335C29.2162 12.5778 29.0726 12.3453 28.882 12.1547C28.6914 11.9641 28.459 11.8206 28.2033 11.7355L27.0423 11.3485C26.9995 11.3337 26.9625 11.306 26.9363 11.2691C26.9101 11.2323 26.896 11.1882 26.896 11.143C26.896 11.0978 26.9101 11.0537 26.9363 11.0169C26.9625 10.9801 26.9995 10.9523 27.0423 10.9375L28.2033 10.5505C28.7223 10.378 29.1288 9.97152 29.3013 9.45252L29.6883 8.29302V8.29152Z" fill="black"/>
<path fill-rule="evenodd" clip-rule="evenodd" d="M52.8945 10.1431C53.4468 10.1431 53.8945 10.5908 53.8945 11.1431V12.1431C53.8945 12.6954 53.4468 13.1431 52.8945 13.1431C52.3422 13.1431 51.8945 12.6954 51.8945 12.1431V11.1431C51.8945 10.5908 52.3422 10.1431 52.8945 10.1431ZM45.8234 13.072C46.2139 12.6814 46.8471 12.6814 47.2376 13.072L47.9446 13.779C48.3352 14.1695 48.3352 14.8026 47.9446 15.1932C47.5541 15.5837 46.9209 15.5837 46.5304 15.1932L45.8234 14.4862C45.4329 14.0956 45.4329 13.4625 45.8234 13.072ZM59.9656 13.072C60.3562 13.4625 60.3562 14.0956 59.9656 14.4862L59.2586 15.1932C58.8681 15.5837 58.2349 15.5837 57.8444 15.1932C57.4539 14.8026 57.4539 14.1695 57.8444 13.779L58.5514 13.072C58.9419 12.6814 59.5751 12.6814 59.9656 13.072ZM52.8945 17.1431C52.0989 17.1431 51.3358 17.4591 50.7732 18.0217C50.2106 18.5844 49.8945 19.3474 49.8945 20.1431C49.8945 20.9387 50.2106 21.7018 50.7732 22.2644C51.3358 22.827 52.0989 23.1431 52.8945 23.1431C53.6902 23.1431 54.4532 22.827 55.0159 22.2644C55.5785 21.7018 55.8945 20.9387 55.8945 20.1431C55.8945 19.3474 55.5785 18.5844 55.0159 18.0217C54.4532 17.4591 53.6902 17.1431 52.8945 17.1431ZM49.359 16.6075C50.2967 15.6699 51.5684 15.1431 52.8945 15.1431C54.2206 15.1431 55.4924 15.6699 56.4301 16.6075C57.3677 17.5452 57.8945 18.817 57.8945 20.1431C57.8945 21.4691 57.3677 22.7409 56.4301 23.6786C55.4924 24.6163 54.2206 25.1431 52.8945 25.1431C51.5684 25.1431 50.2967 24.6163 49.359 23.6786C48.4213 22.7409 47.8945 21.4691 47.8945 20.1431C47.8945 18.817 48.4213 17.5452 49.359 16.6075ZM42.8945 20.1431C42.8945 19.5908 43.3422 19.1431 43.8945 19.1431H44.8945C45.4468 19.1431 45.8945 19.5908 45.8945 20.1431C45.8945 20.6954 45.4468 21.1431 44.8945 21.1431H43.8945C43.3422 21.1431 42.8945 20.6954 42.8945 20.1431ZM59.8945 20.1431C59.8945 19.5908 60.3422 19.1431 60.8945 19.1431H61.8945C62.4468 19.1431 62.8945 19.5908 62.8945 20.1431C62.8945 20.6954 62.4468 21.1431 61.8945 21.1431H60.8945C60.3422 21.1431 59.8945 20.6954 59.8945 20.1431ZM47.9446 25.093C48.3352 25.4835 48.3352 26.1166 47.9446 26.5072L47.2376 27.2142C46.8471 27.6047 46.2139 27.6047 45.8234 27.2142C45.4329 26.8237 45.4329 26.1905 45.8234 25.8L46.5304 25.093C46.9209 24.7024 47.5541 24.7024 47.9446 25.093ZM57.8444 25.093C58.2349 24.7024 58.8681 24.7024 59.2586 25.093L59.9656 25.8C60.3562 26.1905 60.3562 26.8236 59.9656 27.2142C59.5751 27.6047 58.9419 27.6047 58.5514 27.2142L57.8444 26.5072C57.4539 26.1166 57.4539 25.4835 57.8444 25.093ZM52.8945 27.1431C53.4468 27.1431 53.8945 27.5908 53.8945 28.1431V29.1431C53.8945 29.6954 53.4468 30.1431 52.8945 30.1431C52.3422 30.1431 51.8945 29.6954 51.8945 29.1431V28.1431C51.8945 27.5908 52.3422 27.1431 52.8945 27.1431Z" fill="black"/>
</svg>
